<?xml version="1.0" encoding="UTF-8"?>
<svg width="199px" height="199px" viewBox="0 0 199 199" version="1.1" xmlns="http://www.w3.org/2000/svg" xmlns:xlink="http://www.w3.org/1999/xlink">
    <!-- Generator: Sketch 64 (93537) - https://sketch.com -->
    <title>close</title>
    <desc>Created with Sketch.</desc>
    <g id="Page-1" stroke="none" stroke-width="1" fill="none" fill-rule="evenodd">
        <g id="close" fill="#606266" fill-rule="nonzero">
            <path d="M113.253968,98.9732143 L195.496032,17.1577381 C199.384921,13.2886905 199.404762,7.01884921 195.535714,3.12996032 C191.656746,-0.768849206 185.396825,-0.778769841 181.507937,3.09027778 L99.2460317,84.9156746 L17.6984127,3.12003968 C13.8392857,-0.749007937 7.55952381,-0.768849206 3.67063492,3.10019841 C-0.208333333,6.96924603 -0.218253968,13.2490079 3.65079365,17.1378968 L85.1785714,98.9136905 L2.97619048,180.679563 C-0.912698413,184.548611 -0.932539683,190.818452 2.93650794,194.707341 C4.87103175,196.651786 7.42063492,197.633929 9.9702381,197.633929 C12.5,197.633929 15.0297619,196.671627 16.9642857,194.747024 L99.1865079,112.96131 L181.478175,195.500992 C183.412698,197.445437 185.952381,198.417659 188.501984,198.417659 C191.041667,198.417659 193.571429,197.445437 195.505952,195.520833 C199.384921,191.651786 199.394841,185.381944 195.525794,181.493056 L113.253968,98.9732143 Z" id="Path"></path>
        </g>
    </g>
</svg>