<svg t="1589854558007" class="icon" viewBox="0 0 1024 1024" version="1.1" xmlns="http://www.w3.org/2000/svg" p-id="1140" width="200" height="200">
    <path d="M513.7 55.5c59.1 0 116.7 11.2 171.2 33.3 56.4 22.9 107.1 56.5 150.5 100 43.4 43.4 77.1 94.1 100 150.5 22.1 54.5 33.3 112.1 33.3 171.2s-11.2 116.7-33.3 171.2c-22.9 56.4-56.5 107.1-100 150.5-43.4 43.4-94.1 77.1-150.5 100-54.5 22.1-112.1 33.3-171.2 33.3S397 954.3 342.5 932.2c-56.4-22.9-107.1-56.5-150.5-100-43.4-43.4-77.1-94.1-100-150.5-22-54.5-33.3-112.1-33.3-171.2 0-59.1 11.2-116.7 33.3-171.2 22.9-56.4 56.5-107.1 100-150.5 43.4-43.4 94.1-77.1 150.5-100C397 66.7 454.6 55.5 513.7 55.5m0-40c-126.7 0-253.4 48.3-350 145-193.3 193.3-193.3 506.7 0 700 96.7 96.7 223.3 145 350 145s253.4-48.3 350-145c193.3-193.3 193.3-506.7 0-700-96.6-96.7-223.3-145-350-145z" fill="#606266" p-id="1141"/>
    <path d="M302.9 510.5m-50.7 0a50.7 50.7 0 1 0 101.4 0 50.7 50.7 0 1 0-101.4 0Z" fill="#606266" p-id="1142"/>
    <path d="M513.7 510.5m-50.7 0a50.7 50.7 0 1 0 101.4 0 50.7 50.7 0 1 0-101.4 0Z" fill="#606266" p-id="1143"/>
    <path d="M724.6 510.5m-50.7 0a50.7 50.7 0 1 0 101.4 0 50.7 50.7 0 1 0-101.4 0Z" fill="#606266" p-id="1144"/>
</svg>
