<?xml version="1.0" encoding="UTF-8"?>
<svg width="200px" height="200px" viewBox="0 0 200 200" version="1.1" xmlns="http://www.w3.org/2000/svg" xmlns:xlink="http://www.w3.org/1999/xlink">
    <!-- Generator: Sketch 64 (93537) - https://sketch.com -->
    <title>Shape</title>
    <desc>Created with Sketch.</desc>
    <g id="Page-1" stroke="none" stroke-width="1" fill="none" fill-rule="evenodd">
        <g id="save" fill="#606266" fill-rule="nonzero">
            <path d="M118.75,62.5 C122.2,62.5 125,59.70625 125,56.25 L125,31.25 C125,27.79375 122.2,25 118.75,25 C115.3,25 112.5,27.79375 112.5,31.25 L112.5,56.25 C112.5,59.70625 115.3,62.5 118.75,62.5 L118.75,62.5 Z M187.5,175 C187.5,181.9 181.9,187.5 175,187.5 L25,187.5 C18.1,187.5 12.5,181.9 12.5,175 L12.5,25 C12.5,18.1 18.1,12.5 25,12.5 L37.5,12.5 L37.5,75 C37.5,81.9 43.1,87.5 50,87.5 L150,87.5 C156.9,87.5 162.5,81.9 162.5,75 L162.5,12.5 L175,12.5 C181.9,12.5 187.5,18.1 187.5,25 L187.5,175 L187.5,175 Z M50,12.5 L150,12.5 L150,68.75 C150,72.20625 147.2,75 143.75,75 L56.25,75 C52.8,75 50,72.20625 50,68.75 L50,12.5 L50,12.5 Z M175,0 L25,0 C11.19375,0 0,11.19375 0,25 L0,175 C0,188.80625 11.19375,200 25,200 L175,200 C188.80625,200 200,188.80625 200,175 L200,25 C200,11.19375 188.80625,0 175,0 L175,0 Z" id="Shape"></path>
        </g>
    </g>
</svg>